<svg xmlns="http://www.w3.org/2000/svg" >
  <defs>
      <symbol id="home" width="22" height="22" viewBox="0 0 22 22" fill="none" xmlns="http://www.w3.org/2000/svg">
        <path d="M1.40002 8.28422C1.40002 7.89019 1.60057 7.52054 1.93823 7.29219L10.2582 1.66568C10.7023 1.36535 11.2977 1.36535 11.7418 1.66568L20.0618 7.29219C20.3995 7.52054 20.6 7.89019 20.6 8.28422V18.8145C20.6 19.8229 19.7404 20.6404 18.68 20.6404H3.32002C2.25964 20.6404 1.40002 19.8229 1.40002 18.8145V8.28422Z" stroke="currentColor" stroke-width="2"/>
        <path d="M13.4 12.2404C13.4 13.5659 12.3255 14.6404 11 14.6404C9.67454 14.6404 8.60002 13.5659 8.60002 12.2404C8.60002 10.9149 9.67454 9.84043 11 9.84043C12.3255 9.84043 13.4 10.9149 13.4 12.2404Z" stroke="currentColor" stroke-width="2"/>
      </symbol>
      <symbol id="bag" width="23" height="24" viewBox="0 0 23 24" fill="none" xmlns="http://www.w3.org/2000/svg">
        <path d="M15.1 8.44058V5.44058C15.1 3.45235 13.4882 1.84058 11.5 1.84058C9.5118 1.84058 7.90002 3.45235 7.90002 5.44058V8.44058M4.2273 22.2406H18.7728C20.0581 22.2406 21.1 21.218 21.1 19.9566L19.6091 7.84054C19.6091 6.57912 18.5672 5.55653 17.2818 5.55653H5.4273C4.14198 5.55653 3.10002 6.57912 3.10002 7.84054L1.90002 19.9566C1.90002 21.218 2.94198 22.2406 4.2273 22.2406Z" stroke="currentColor" stroke-width="2" stroke-linecap="round" stroke-linejoin="round"/>
      </symbol>
      <symbol id="cart" width="22" height="22" viewBox="0 0 22 22" fill="none" xmlns="http://www.w3.org/2000/svg">
        <path d="M1.40002 0.0332031C0.84774 0.0332031 0.400024 0.480918 0.400024 1.0332C0.400024 1.58549 0.84774 2.0332 1.40002 2.0332V0.0332031ZM3.69256 1.0332L4.65779 0.771788C4.53973 0.335885 4.14417 0.0332031 3.69256 0.0332031V1.0332ZM7.41793 14.7884L6.45271 15.0498C6.58298 15.5308 7.0475 15.8425 7.54197 15.7807L7.41793 14.7884ZM18.8806 13.3556L19.0047 14.3479C19.4293 14.2948 19.7732 13.9773 19.8599 13.5582L18.8806 13.3556ZM20.6 5.04514L21.5793 5.24775C21.6402 4.95323 21.5654 4.64693 21.3755 4.41372C21.1856 4.18051 20.9008 4.04514 20.6 4.04514V5.04514ZM4.77913 5.04514L3.8139 5.30656L4.77913 5.04514ZM1.40002 2.0332H3.69256V0.0332031H1.40002V2.0332ZM7.54197 15.7807L19.0047 14.3479L18.7566 12.3633L7.2939 13.7962L7.54197 15.7807ZM19.8599 13.5582L21.5793 5.24775L19.6208 4.84254L17.9014 13.153L19.8599 13.5582ZM2.72733 1.29462L3.8139 5.30656L5.74435 4.78373L4.65779 0.771788L2.72733 1.29462ZM3.8139 5.30656L6.45271 15.0498L8.38316 14.527L5.74435 4.78373L3.8139 5.30656ZM20.6 4.04514H4.77913V6.04514H20.6V4.04514ZM10 18.5405C10 18.8166 9.77617 19.0405 9.50002 19.0405V21.0405C10.8807 21.0405 12 19.9212 12 18.5405H10ZM9.50002 19.0405C9.22388 19.0405 9.00002 18.8166 9.00002 18.5405H7.00002C7.00002 19.9212 8.11931 21.0405 9.50002 21.0405V19.0405ZM9.00002 18.5405C9.00002 18.2643 9.22388 18.0405 9.50002 18.0405V16.0405C8.11931 16.0405 7.00002 17.1598 7.00002 18.5405H9.00002ZM9.50002 18.0405C9.77617 18.0405 10 18.2643 10 18.5405H12C12 17.1598 10.8807 16.0405 9.50002 16.0405V18.0405ZM18 18.5405C18 18.8166 17.7762 19.0405 17.5 19.0405V21.0405C18.8807 21.0405 20 19.9212 20 18.5405H18ZM17.5 19.0405C17.2239 19.0405 17 18.8166 17 18.5405H15C15 19.9212 16.1193 21.0405 17.5 21.0405V19.0405ZM17 18.5405C17 18.2643 17.2239 18.0405 17.5 18.0405V16.0405C16.1193 16.0405 15 17.1598 15 18.5405H17ZM17.5 18.0405C17.7762 18.0405 18 18.2643 18 18.5405H20C20 17.1598 18.8807 16.0405 17.5 16.0405V18.0405Z" fill="#333333"/>
      </symbol>
      <symbol id="person" width="19" height="22" viewBox="0 0 19 22" fill="none" xmlns="http://www.w3.org/2000/svg">
        <path d="M17.8996 20.6404L17.8999 17.0408C17.9001 15.0524 16.2882 13.4404 14.2999 13.4404H4.70062C2.71256 13.4404 1.10085 15.052 1.10062 17.04L1.10022 20.6404M13.1002 5.04043C13.1002 7.02865 11.4884 8.64043 9.50022 8.64043C7.51199 8.64043 5.90022 7.02865 5.90022 5.04043C5.90022 3.0522 7.51199 1.44043 9.50022 1.44043C11.4884 1.44043 13.1002 3.0522 13.1002 5.04043Z" stroke="black" stroke-width="2" stroke-linecap="round" stroke-linejoin="round"/>
      </symbol>
      <symbol id="setting" width="24" height="22" viewBox="0 0 24 22" fill="none" xmlns="http://www.w3.org/2000/svg">
        <path d="M8.75602 3.29599L10.0271 1.46935C10.214 1.20069 10.5206 1.04053 10.8479 1.04053H12.653C12.9791 1.04053 13.2847 1.19951 13.4719 1.46652L14.7297 3.26085M8.75602 3.29599C8.40917 3.79084 7.83262 4.03331 7.22068 3.99008M8.75602 3.29599C8.40748 3.78965 7.83262 4.03532 7.22068 3.99008M7.22068 3.99008L4.97158 3.84888C4.65073 3.82874 4.33977 3.96408 4.13585 4.21261L2.99534 5.6026C2.77914 5.8661 2.71204 6.22157 2.8173 6.54575L3.47315 8.56557M3.47315 8.56557C3.56207 8.8539 3.57345 9.1628 3.50981 9.45453M3.47315 8.56557C3.56334 8.85339 3.5743 9.16166 3.50939 9.45752M3.50981 9.45453C3.44533 9.74282 3.3071 10.015 3.10185 10.2354M3.50981 9.45453L3.50939 9.45752M3.10185 10.2354L1.61575 11.8338C1.38735 12.0794 1.29732 12.4232 1.376 12.7493L1.77856 14.4175C1.85699 14.7425 2.09263 15.0068 2.40653 15.1218L4.44838 15.8702C4.73328 15.9804 4.97941 16.1597 5.16569 16.3854M3.10185 10.2354C3.30836 10.0168 3.44533 9.74549 3.50939 9.45752M5.16569 16.3854C5.35071 16.6118 5.47672 16.885 5.52561 17.1809M5.16569 16.3854C5.35239 16.6118 5.47883 16.8843 5.52561 17.1809M5.16569 16.3854L5.16274 16.3821C5.15052 16.3674 5.13745 16.3519 5.12481 16.3375M5.52561 17.1809L5.87327 19.3165C5.92654 19.6436 6.13849 19.9232 6.43917 20.0628L8.0671 20.8186C8.35817 20.9537 8.6964 20.941 8.97646 20.7843L10.8902 19.7136M10.8902 19.7136C11.1553 19.5647 11.4512 19.49 11.747 19.4897M10.8902 19.7136C10.9952 19.6539 11.1052 19.6062 11.2181 19.5705C11.3897 19.5161 11.5684 19.4893 11.747 19.4897M11.747 19.4897C11.9009 19.49 12.0547 19.5103 12.2047 19.5505C12.3442 19.5879 12.48 19.6423 12.6085 19.7136M11.747 19.4897C12.0442 19.4893 12.3417 19.5639 12.6085 19.7136M12.6085 19.7136L14.612 20.7982C14.8932 20.9504 15.2304 20.959 15.519 20.8211L17.1391 20.0473C17.4387 19.9042 17.6478 19.6218 17.6971 19.2934L18.0085 17.2185M18.0085 17.2185C18.0553 16.921 18.1796 16.6457 18.3642 16.4173M18.0085 17.2185C18.0536 16.9203 18.1788 16.6454 18.3642 16.4173M18.3642 16.4173C18.5476 16.1913 18.7907 16.0112 19.074 15.8999M18.3642 16.4173C18.5471 16.1904 18.7895 16.0098 19.074 15.8999M19.074 15.8999L21.1369 15.0913C21.4449 14.9706 21.6733 14.7055 21.7469 14.383L22.1326 12.6945C22.2061 12.3728 22.1162 12.0357 21.8924 11.7933L20.3973 10.1745M20.3973 10.1745C20.1883 9.9533 20.0424 9.68907 19.9716 9.40826M20.3973 10.1745C20.2991 10.0712 20.2148 9.95824 20.1461 9.8385C20.0677 9.70252 20.0092 9.55779 19.9716 9.40826M19.9716 9.40826C19.9021 9.12946 19.9063 8.83402 19.9944 8.54805L20.641 6.4754C20.7414 6.1536 20.6729 5.80287 20.4588 5.54249L19.3464 4.18947C19.1401 3.93858 18.8249 3.8035 18.5009 3.82723L16.2776 3.99008M16.2776 3.99008C15.9733 4.01157 15.6741 3.9536 15.4078 3.82891M16.2776 3.99008C15.9729 4.01281 15.6741 3.95438 15.4078 3.82891M15.4078 3.82891C15.1397 3.70263 14.9046 3.50843 14.7297 3.26085M15.4078 3.82891C15.1393 3.70309 14.9037 3.50941 14.7297 3.26085M3.50939 9.45752L3.51024 9.45314M15.1359 11.0511C15.1359 12.9161 13.59 14.4279 11.6834 14.4279C9.77677 14.4279 8.23089 12.9161 8.23089 11.0511C8.23089 9.18619 9.77677 7.67439 11.6834 7.67439C13.59 7.67439 15.1359 9.18619 15.1359 11.0511Z" stroke="#333333" stroke-width="2"/>
      </symbol>
      <symbol id="heart" width="12" height="11" viewBox="0 0 12 11" fill="none" xmlns="http://www.w3.org/2000/svg">
        <path d="M10.2061 6.44418L7.44921 9.2011C6.66817 9.98215 5.40183 9.98215 4.62079 9.2011L1.86387 6.44418C0.712044 5.29235 0.712043 3.42488 1.86387 2.27305C3.0157 1.12122 4.88317 1.12122 6.035 2.27305C7.18683 1.12122 9.0543 1.12122 10.2061 2.27305C11.358 3.42488 11.358 5.29235 10.2061 6.44418Z" stroke="currentColor" stroke-linecap="round" stroke-linejoin="round"/>
      </symbol>
      <symbol id="whatsapp" width="60" height="61" viewBox="0 0 60 61" fill="none" xmlns="http://www.w3.org/2000/svg">
        <rect y="0.449219" width="60" height="60" rx="30" fill="#ECFFF5"/>
        <path d="M15.0001 44.2495L17.1526 36.2534C15.4167 33.1385 14.8652 29.5036 15.5992 26.0159C16.3333 22.5281 18.3037 19.4214 21.1489 17.2657C23.9941 15.1101 27.5231 14.0502 31.0886 14.2805C34.654 14.5108 38.0165 16.0158 40.5592 18.5194C43.1019 21.0231 44.6542 24.3573 44.9312 27.9104C45.2082 31.4635 44.1913 34.997 42.0672 37.8626C39.9431 40.7282 36.8542 42.7336 33.3673 43.5109C29.8804 44.2881 26.2295 43.7851 23.0845 42.0941L15.0001 44.2495ZM23.4743 39.1019L23.9742 39.3977C26.2523 40.7445 28.913 41.3019 31.5417 40.9829C34.1704 40.6639 36.6195 39.4865 38.5074 37.6341C40.3952 35.7818 41.6157 33.3586 41.9787 30.7422C42.3417 28.1257 41.8267 25.463 40.5141 23.1689C39.2015 20.8749 37.1649 19.0783 34.7218 18.0593C32.2787 17.0403 29.5662 16.856 27.0072 17.5352C24.4481 18.2144 22.1861 19.7188 20.5738 21.8142C18.9614 23.9095 18.0893 26.478 18.0932 29.1194C18.091 31.3095 18.6983 33.4573 19.8473 35.3236L20.1609 35.8392L18.9575 40.3022L23.4743 39.1019Z" fill="#00D95F"/>
        <path fill-rule="evenodd" clip-rule="evenodd" d="M35.609 31.1726C35.3159 30.9368 34.9727 30.7708 34.6056 30.6874C34.2384 30.6039 33.857 30.605 33.4904 30.6908C32.9396 30.919 32.5837 31.7812 32.2278 32.2123C32.1527 32.3156 32.0424 32.3881 31.9176 32.4161C31.7928 32.4441 31.662 32.4257 31.5499 32.3644C29.5333 31.5766 27.843 30.1319 26.7535 28.2649C26.6606 28.1484 26.6166 28.0005 26.6308 27.8523C26.645 27.7041 26.7164 27.5672 26.8298 27.4704C27.2267 27.0784 27.5182 26.5929 27.6772 26.0588C27.7125 25.4697 27.5772 24.8828 27.2874 24.3683C27.0633 23.6469 26.6369 23.0046 26.0586 22.5172C25.7603 22.3834 25.4296 22.3385 25.1063 22.388C24.783 22.4375 24.481 22.5792 24.2367 22.7961C23.8125 23.1611 23.4758 23.6164 23.2515 24.1284C23.0271 24.6404 22.9207 25.1961 22.9401 25.7545C22.9414 26.0681 22.9813 26.3804 23.0588 26.6843C23.2555 27.4145 23.5581 28.1122 23.957 28.7552C24.2448 29.2477 24.5588 29.7246 24.8976 30.1837C25.9989 31.6916 27.3832 32.9719 28.9737 33.9535C29.7718 34.4523 30.6249 34.8579 31.516 35.1622C32.4416 35.5808 33.4636 35.7414 34.4734 35.6271C35.0488 35.5403 35.5939 35.3137 36.0609 34.9673C36.5278 34.6209 36.9023 34.1654 37.1513 33.6408C37.2975 33.3238 37.342 32.9695 37.2784 32.6265C37.1258 31.9249 36.1852 31.5107 35.609 31.1726Z" fill="#00D95F"/>
      </symbol>
      <symbol id="gmail" width="61" height="61" viewBox="0 0 61 61" fill="none" xmlns="http://www.w3.org/2000/svg">
        <rect x="0.206177" y="0.57666" width="60" height="60" rx="30" fill="#F9F9F9"/>
        <path d="M15.039 43.8262H20.5977V30.3266L12.6567 24.3708V41.4439C12.6567 42.7621 13.7248 43.8262 15.039 43.8262Z" fill="#4285F4"/>
        <path d="M39.656 43.8262H45.2147C46.5329 43.8262 47.597 42.7582 47.597 41.4439V24.3708L39.656 30.3266" fill="#34A853"/>
        <path d="M39.656 20.0036V30.3268L47.597 24.3711V21.1947C47.597 18.2486 44.234 16.5691 41.8795 18.3359" fill="#FBBC04"/>
        <path d="M20.5977 30.3267V20.0034L30.1268 27.1503L39.656 20.0034V30.3267L30.1268 37.4736" fill="#EA4335"/>
        <path d="M12.6567 21.1947V24.3711L20.5977 30.3268V20.0036L18.3742 18.3359C16.0158 16.5691 12.6567 18.2486 12.6567 21.1947Z" fill="#C5221F"/>
      </symbol>
      <symbol id="youTube" width="60" height="61" viewBox="0 0 60 61" fill="none" xmlns="http://www.w3.org/2000/svg">
        <rect y="0.449219" width="60" height="60" rx="30" fill="#FFECE8"/>
        <path d="M46.6878 22.1967C46.2961 20.724 45.1372 19.5622 43.6628 19.164C40.9969 18.4495 30.3006 18.4495 30.3006 18.4495C30.3006 18.4495 19.6097 18.4495 16.9383 19.164C15.4693 19.5567 14.3105 20.7186 13.9133 22.1967C13.2006 24.8695 13.2006 30.4495 13.2006 30.4495C13.2006 30.4495 13.2006 36.0295 13.9133 38.7022C14.305 40.1749 15.4639 41.3367 16.9383 41.7349C19.6097 42.4495 30.3006 42.4495 30.3006 42.4495C30.3006 42.4495 40.9969 42.4495 43.6628 41.7349C45.1318 41.3422 46.2907 40.1804 46.6878 38.7022C47.4006 36.0295 47.4006 30.4495 47.4006 30.4495C47.4006 30.4495 47.4006 24.8695 46.6878 22.1967Z" fill="#FF3000"/>
        <path d="M26.8838 35.5931L35.7684 30.4495L26.8838 25.3058V35.5931Z" fill="white"/>
      </symbol>
      <symbol id="facebook" width="60" height="61" viewBox="0 0 60 61" fill="none" xmlns="http://www.w3.org/2000/svg">
        <rect y="0.449219" width="60" height="60" rx="30" fill="#EDF4FF"/>
        <path d="M37.3406 32.3239L38.1955 26.8971H32.9294V23.3697C32.9294 21.8858 33.6646 20.4358 36.0156 20.4358H38.4434V15.8146C37.0296 15.5893 35.6009 15.4674 34.169 15.45C29.8348 15.45 27.0051 18.0531 27.0051 22.7592V26.8971H22.2007V32.3239H27.0051V45.45H32.9294V32.3239H37.3406Z" fill="#337FFF"/>
      </symbol>
      <symbol id="call" width="60" height="60" viewBox="0 0 60 60" fill="none" xmlns="http://www.w3.org/2000/svg">
        <rect width="60" height="60" rx="30" fill="#FAEBC5" />
        <path d="M40.7635 44.867C37.5213 44.6281 34.3591 43.595 31.2768 41.7676C28.1945 39.9402 25.4714 37.6583 23.1075 34.9217C20.7436 32.1852 18.8839 29.1569 17.5282 25.8369C16.1726 22.5169 15.614 19.2389 15.8524 16.003C15.8939 15.44 16.122 14.9797 16.5366 14.622C16.9512 14.2642 17.44 14.1061 18.003 14.1476L23.5297 14.5548C24.0051 14.5898 24.3986 14.7651 24.7101 15.0806C25.0217 15.396 25.2105 15.8153 25.2766 16.3385L25.9871 21.24C26.0255 21.6955 25.9877 22.0966 25.8739 22.4431C25.7601 22.7896 25.5636 23.0774 25.2844 23.3065L20.9999 26.9426C22.2621 29.4078 23.7089 31.5771 25.3403 33.4503C26.9716 35.3235 28.8502 36.9481 30.9761 38.3243L35.0607 34.7071C35.3988 34.3967 35.7674 34.1903 36.1663 34.0879C36.5653 33.9856 36.97 33.9987 37.3805 34.1273L41.8057 35.4664C42.293 35.6133 42.6752 35.8811 42.9523 36.2696C43.2294 36.6582 43.349 37.1102 43.311 37.6257L42.9148 43.0022C42.8729 43.5714 42.6446 44.0349 42.2299 44.3927C41.8153 44.7504 41.3265 44.9085 40.7635 44.867Z" fill="#F44336" />
      </symbol>
      <symbol id="chevron-up" width="12" height="8" viewBox="0 0 12 8" fill="none" xmlns="http://www.w3.org/2000/svg">
        <path d="M1.19995 6.39998L5.99995 1.59998L10.8 6.39998" stroke="white" stroke-width="2" stroke-linecap="round" stroke-linejoin="round"/>
      </symbol>
  </defs>
</svg>