<svg xmlns="http://www.w3.org/2000/svg" >
  <defs>
      <symbol id="home" width="22" height="22" viewBox="0 0 22 22" fill="none" xmlns="http://www.w3.org/2000/svg">
        <path d="M1.40002 8.28422C1.40002 7.89019 1.60057 7.52054 1.93823 7.29219L10.2582 1.66568C10.7023 1.36535 11.2977 1.36535 11.7418 1.66568L20.0618 7.29219C20.3995 7.52054 20.6 7.89019 20.6 8.28422V18.8145C20.6 19.8229 19.7404 20.6404 18.68 20.6404H3.32002C2.25964 20.6404 1.40002 19.8229 1.40002 18.8145V8.28422Z" stroke="currentColor" stroke-width="2"/>
        <path d="M13.4 12.2404C13.4 13.5659 12.3255 14.6404 11 14.6404C9.67454 14.6404 8.60002 13.5659 8.60002 12.2404C8.60002 10.9149 9.67454 9.84043 11 9.84043C12.3255 9.84043 13.4 10.9149 13.4 12.2404Z" stroke="currentColor" stroke-width="2"/>
      </symbol>
      <symbol id="bag" width="23" height="24" viewBox="0 0 23 24" fill="none" xmlns="http://www.w3.org/2000/svg">
        <path d="M15.1 8.44058V5.44058C15.1 3.45235 13.4882 1.84058 11.5 1.84058C9.5118 1.84058 7.90002 3.45235 7.90002 5.44058V8.44058M4.2273 22.2406H18.7728C20.0581 22.2406 21.1 21.218 21.1 19.9566L19.6091 7.84054C19.6091 6.57912 18.5672 5.55653 17.2818 5.55653H5.4273C4.14198 5.55653 3.10002 6.57912 3.10002 7.84054L1.90002 19.9566C1.90002 21.218 2.94198 22.2406 4.2273 22.2406Z" stroke="currentColor" stroke-width="2" stroke-linecap="round" stroke-linejoin="round"/>
      </symbol>
      <symbol id="cart" width="22" height="22" viewBox="0 0 22 22" fill="none" xmlns="http://www.w3.org/2000/svg">
        <path d="M1.40002 0.0332031C0.84774 0.0332031 0.400024 0.480918 0.400024 1.0332C0.400024 1.58549 0.84774 2.0332 1.40002 2.0332V0.0332031ZM3.69256 1.0332L4.65779 0.771788C4.53973 0.335885 4.14417 0.0332031 3.69256 0.0332031V1.0332ZM7.41793 14.7884L6.45271 15.0498C6.58298 15.5308 7.0475 15.8425 7.54197 15.7807L7.41793 14.7884ZM18.8806 13.3556L19.0047 14.3479C19.4293 14.2948 19.7732 13.9773 19.8599 13.5582L18.8806 13.3556ZM20.6 5.04514L21.5793 5.24775C21.6402 4.95323 21.5654 4.64693 21.3755 4.41372C21.1856 4.18051 20.9008 4.04514 20.6 4.04514V5.04514ZM4.77913 5.04514L3.8139 5.30656L4.77913 5.04514ZM1.40002 2.0332H3.69256V0.0332031H1.40002V2.0332ZM7.54197 15.7807L19.0047 14.3479L18.7566 12.3633L7.2939 13.7962L7.54197 15.7807ZM19.8599 13.5582L21.5793 5.24775L19.6208 4.84254L17.9014 13.153L19.8599 13.5582ZM2.72733 1.29462L3.8139 5.30656L5.74435 4.78373L4.65779 0.771788L2.72733 1.29462ZM3.8139 5.30656L6.45271 15.0498L8.38316 14.527L5.74435 4.78373L3.8139 5.30656ZM20.6 4.04514H4.77913V6.04514H20.6V4.04514ZM10 18.5405C10 18.8166 9.77617 19.0405 9.50002 19.0405V21.0405C10.8807 21.0405 12 19.9212 12 18.5405H10ZM9.50002 19.0405C9.22388 19.0405 9.00002 18.8166 9.00002 18.5405H7.00002C7.00002 19.9212 8.11931 21.0405 9.50002 21.0405V19.0405ZM9.00002 18.5405C9.00002 18.2643 9.22388 18.0405 9.50002 18.0405V16.0405C8.11931 16.0405 7.00002 17.1598 7.00002 18.5405H9.00002ZM9.50002 18.0405C9.77617 18.0405 10 18.2643 10 18.5405H12C12 17.1598 10.8807 16.0405 9.50002 16.0405V18.0405ZM18 18.5405C18 18.8166 17.7762 19.0405 17.5 19.0405V21.0405C18.8807 21.0405 20 19.9212 20 18.5405H18ZM17.5 19.0405C17.2239 19.0405 17 18.8166 17 18.5405H15C15 19.9212 16.1193 21.0405 17.5 21.0405V19.0405ZM17 18.5405C17 18.2643 17.2239 18.0405 17.5 18.0405V16.0405C16.1193 16.0405 15 17.1598 15 18.5405H17ZM17.5 18.0405C17.7762 18.0405 18 18.2643 18 18.5405H20C20 17.1598 18.8807 16.0405 17.5 16.0405V18.0405Z" fill="#333333"/>
      </symbol>
      <symbol id="person" width="19" height="22" viewBox="0 0 19 22" fill="none" xmlns="http://www.w3.org/2000/svg">
        <path d="M17.8996 20.6404L17.8999 17.0408C17.9001 15.0524 16.2882 13.4404 14.2999 13.4404H4.70062C2.71256 13.4404 1.10085 15.052 1.10062 17.04L1.10022 20.6404M13.1002 5.04043C13.1002 7.02865 11.4884 8.64043 9.50022 8.64043C7.51199 8.64043 5.90022 7.02865 5.90022 5.04043C5.90022 3.0522 7.51199 1.44043 9.50022 1.44043C11.4884 1.44043 13.1002 3.0522 13.1002 5.04043Z" stroke="black" stroke-width="2" stroke-linecap="round" stroke-linejoin="round"/>
      </symbol>
      <symbol id="setting" width="24" height="22" viewBox="0 0 24 22" fill="none" xmlns="http://www.w3.org/2000/svg">
        <path d="M8.75602 3.29599L10.0271 1.46935C10.214 1.20069 10.5206 1.04053 10.8479 1.04053H12.653C12.9791 1.04053 13.2847 1.19951 13.4719 1.46652L14.7297 3.26085M8.75602 3.29599C8.40917 3.79084 7.83262 4.03331 7.22068 3.99008M8.75602 3.29599C8.40748 3.78965 7.83262 4.03532 7.22068 3.99008M7.22068 3.99008L4.97158 3.84888C4.65073 3.82874 4.33977 3.96408 4.13585 4.21261L2.99534 5.6026C2.77914 5.8661 2.71204 6.22157 2.8173 6.54575L3.47315 8.56557M3.47315 8.56557C3.56207 8.8539 3.57345 9.1628 3.50981 9.45453M3.47315 8.56557C3.56334 8.85339 3.5743 9.16166 3.50939 9.45752M3.50981 9.45453C3.44533 9.74282 3.3071 10.015 3.10185 10.2354M3.50981 9.45453L3.50939 9.45752M3.10185 10.2354L1.61575 11.8338C1.38735 12.0794 1.29732 12.4232 1.376 12.7493L1.77856 14.4175C1.85699 14.7425 2.09263 15.0068 2.40653 15.1218L4.44838 15.8702C4.73328 15.9804 4.97941 16.1597 5.16569 16.3854M3.10185 10.2354C3.30836 10.0168 3.44533 9.74549 3.50939 9.45752M5.16569 16.3854C5.35071 16.6118 5.47672 16.885 5.52561 17.1809M5.16569 16.3854C5.35239 16.6118 5.47883 16.8843 5.52561 17.1809M5.16569 16.3854L5.16274 16.3821C5.15052 16.3674 5.13745 16.3519 5.12481 16.3375M5.52561 17.1809L5.87327 19.3165C5.92654 19.6436 6.13849 19.9232 6.43917 20.0628L8.0671 20.8186C8.35817 20.9537 8.6964 20.941 8.97646 20.7843L10.8902 19.7136M10.8902 19.7136C11.1553 19.5647 11.4512 19.49 11.747 19.4897M10.8902 19.7136C10.9952 19.6539 11.1052 19.6062 11.2181 19.5705C11.3897 19.5161 11.5684 19.4893 11.747 19.4897M11.747 19.4897C11.9009 19.49 12.0547 19.5103 12.2047 19.5505C12.3442 19.5879 12.48 19.6423 12.6085 19.7136M11.747 19.4897C12.0442 19.4893 12.3417 19.5639 12.6085 19.7136M12.6085 19.7136L14.612 20.7982C14.8932 20.9504 15.2304 20.959 15.519 20.8211L17.1391 20.0473C17.4387 19.9042 17.6478 19.6218 17.6971 19.2934L18.0085 17.2185M18.0085 17.2185C18.0553 16.921 18.1796 16.6457 18.3642 16.4173M18.0085 17.2185C18.0536 16.9203 18.1788 16.6454 18.3642 16.4173M18.3642 16.4173C18.5476 16.1913 18.7907 16.0112 19.074 15.8999M18.3642 16.4173C18.5471 16.1904 18.7895 16.0098 19.074 15.8999M19.074 15.8999L21.1369 15.0913C21.4449 14.9706 21.6733 14.7055 21.7469 14.383L22.1326 12.6945C22.2061 12.3728 22.1162 12.0357 21.8924 11.7933L20.3973 10.1745M20.3973 10.1745C20.1883 9.9533 20.0424 9.68907 19.9716 9.40826M20.3973 10.1745C20.2991 10.0712 20.2148 9.95824 20.1461 9.8385C20.0677 9.70252 20.0092 9.55779 19.9716 9.40826M19.9716 9.40826C19.9021 9.12946 19.9063 8.83402 19.9944 8.54805L20.641 6.4754C20.7414 6.1536 20.6729 5.80287 20.4588 5.54249L19.3464 4.18947C19.1401 3.93858 18.8249 3.8035 18.5009 3.82723L16.2776 3.99008M16.2776 3.99008C15.9733 4.01157 15.6741 3.9536 15.4078 3.82891M16.2776 3.99008C15.9729 4.01281 15.6741 3.95438 15.4078 3.82891M15.4078 3.82891C15.1397 3.70263 14.9046 3.50843 14.7297 3.26085M15.4078 3.82891C15.1393 3.70309 14.9037 3.50941 14.7297 3.26085M3.50939 9.45752L3.51024 9.45314M15.1359 11.0511C15.1359 12.9161 13.59 14.4279 11.6834 14.4279C9.77677 14.4279 8.23089 12.9161 8.23089 11.0511C8.23089 9.18619 9.77677 7.67439 11.6834 7.67439C13.59 7.67439 15.1359 9.18619 15.1359 11.0511Z" stroke="#333333" stroke-width="2"/>
      </symbol>
  </defs>
</svg>